<svg width="50" height="50" viewBox="0 0 50 50" fill="none" xmlns="http://www.w3.org/2000/svg">
<path d="M42.1434 11.3799L34.5205 3.84962C34.0028 3.33825 33.2931 3.04957 32.5584 3.04957H22.6059C19.9258 2.67017 17.4377 4.50945 17.0536 7.16527C17.0353 7.28976 17.022 7.41486 17.0137 7.54024C16.9822 8.01813 17.061 6.82341 17.0573 6.93543C17.0536 7.04745 17.0536 7.87539 17.0536 9.53127V29.4833C17.0536 31.1824 17.0536 32.032 17.0567 32.1344C17.0598 32.2368 16.9802 30.9177 17.0121 31.4453C17.1477 33.6949 18.8673 35.6184 21.2199 35.9504C21.3578 35.9702 21.4965 35.9841 21.6354 35.992C22.1867 36.0234 20.8085 35.9449 20.9053 35.9477C21.0021 35.9504 21.861 35.9504 23.5789 35.9504H37.401C40.0811 36.3298 42.5693 34.4905 42.9533 31.8347C42.9717 31.7102 42.985 31.5851 42.9932 31.4598C43.0247 30.9819 42.9459 32.1766 42.9496 32.0646C42.9533 31.9526 42.9533 31.1246 42.9533 29.4687V13.3182C42.9533 12.5924 42.6611 11.8913 42.1434 11.3799Z" fill="#17889B"/>
<g filter="url(#filter0_b_64674_13919)">
<path d="M6.97923 17.6496L15.6505 8.97835C16.2394 8.3895 17.0467 8.05708 17.8824 8.05708H28.2331C30.6771 8.05708 31.8991 8.05708 31.9512 8.05788C32.0032 8.05868 28.9505 7.96522 30.1716 8.0026C32.8303 8.084 35.1293 10.0652 35.5194 12.7964C35.5481 12.9935 35.566 13.1921 35.573 13.3909C35.6101 14.441 35.5173 11.8157 35.5184 11.8758C35.5194 11.9359 35.5194 13.0766 35.5194 15.3578V38.6566C35.5194 41.1006 35.5194 42.3226 35.5186 42.3746C35.5179 42.4267 35.6113 39.374 35.5739 40.5951C35.4925 43.2538 33.5113 45.5528 30.7802 45.9429C30.583 45.9716 30.3845 45.9894 30.1856 45.9965C29.1355 46.0336 31.7608 45.9408 31.7007 45.9419C31.6406 45.9429 30.5 45.9429 28.2187 45.9429H13.3443C10.9003 45.9429 9.67833 45.9429 9.62625 45.9421C9.57418 45.9413 12.6269 46.0348 11.4058 45.9974C8.74709 45.916 6.44812 43.9348 6.05796 41.2036C6.02928 41.0065 6.01143 40.8079 6.0044 40.6091C5.96728 39.559 6.06009 42.1843 6.05902 42.1242C6.05796 42.0641 6.05796 40.9234 6.05796 38.6422V19.8816C6.05796 19.0458 6.39038 18.2385 6.97923 17.6496Z" fill="#4EC1B6"/>
<path d="M35.1938 12.819C35.1939 13.3961 35.1939 14.24 35.1939 15.3578V38.6566L35.1938 41.1958C34.8609 43.4253 33.1059 45.2713 30.7575 45.6173C30.1804 45.6174 29.3365 45.6174 28.2187 45.6174H13.3443L10.8051 45.6173C8.57556 45.2844 6.7296 43.5293 6.38359 41.181C6.38347 40.6039 6.38347 39.76 6.38347 38.6422V19.8816C6.38347 19.1314 6.68208 18.4071 7.2094 17.8798L15.8807 9.20852C16.408 8.6812 17.1323 8.38259 17.8824 8.38259H28.2331L30.7723 8.38268C33.0018 8.71558 34.8478 10.4707 35.1938 12.819Z" stroke="url(#paint0_linear_64674_13919)" stroke-width="0.651014"/>
</g>
<path d="M20.4595 22.8648V24.3168H21.6695V22.8648H20.4595ZM20.4595 24.3168C20.4595 24.6508 20.7305 24.9218 21.0645 24.9218C21.3985 24.9218 21.6695 24.6508 21.6695 24.3168H20.4595ZM21.6695 22.8648C21.6695 22.5308 21.3985 22.2598 21.0645 22.2598C20.7305 22.2598 20.4595 22.5308 20.4595 22.8648H21.6695Z" fill="white"/>
<path d="M20.4595 40.2891V41.7411H21.6695V40.2891H20.4595ZM20.4595 41.7411C20.4595 42.0751 20.7305 42.3462 21.0645 42.3462C21.3985 42.3462 21.6695 42.0751 21.6695 41.7411H20.4595ZM21.6695 40.2891C21.6695 39.9551 21.3985 39.6841 21.0645 39.6841C20.7305 39.6841 20.4595 39.9551 20.4595 40.2891H21.6695Z" fill="white"/>
<path d="M16.8306 22.8648V24.3168H18.0406V22.8648H16.8306ZM16.8306 24.3168C16.8306 24.6508 17.1016 24.9218 17.4356 24.9218C17.7696 24.9218 18.0406 24.6508 18.0406 24.3168H16.8306ZM18.0406 22.8648C18.0406 22.5308 17.7696 22.2598 17.4356 22.2598C17.1016 22.2598 16.8306 22.5308 16.8306 22.8648H18.0406Z" fill="white"/>
<path d="M16.8306 40.2891V41.7411H18.0406V40.2891H16.8306ZM16.8306 41.7411C16.8306 42.0751 17.1016 42.3462 17.4356 42.3462C17.7696 42.3462 18.0406 42.0751 18.0406 41.7411H16.8306ZM18.0406 40.2891C18.0406 39.9551 17.7696 39.6841 17.4356 39.6841C17.1016 39.6841 16.8306 39.9551 16.8306 40.2891H18.0406Z" fill="white"/>
<path d="M24.0903 22.8648V24.3168H25.3004V22.8648H24.0903ZM24.0903 24.3168C24.0903 24.6508 24.3614 24.9218 24.6953 24.9218C25.0293 24.9218 25.3004 24.6508 25.3004 24.3168H24.0903ZM25.3004 22.8648C25.3004 22.5308 25.0293 22.2598 24.6953 22.2598C24.3614 22.2598 24.0903 22.5308 24.0903 22.8648H25.3004Z" fill="white"/>
<path d="M24.0903 40.2891V41.7411H25.3004V40.2891H24.0903ZM24.0903 41.7411C24.0903 42.0751 24.3614 42.3462 24.6953 42.3462C25.0293 42.3462 25.3004 42.0751 25.3004 41.7411H24.0903ZM25.3004 40.2891C25.3004 39.9551 25.0293 39.6841 24.6953 39.6841C24.3614 39.6841 24.0903 39.9551 24.0903 40.2891H25.3004Z" fill="white"/>
<path d="M30.1381 31.6985H28.6861V32.9085H30.1381V31.6985ZM28.6861 31.6985C28.3521 31.6985 28.0811 31.9695 28.0811 32.3035C28.0811 32.6375 28.3521 32.9085 28.6861 32.9085V31.6985ZM30.1381 32.9085C30.4721 32.9085 30.7431 32.6375 30.7431 32.3035C30.7431 31.9695 30.4721 31.6985 30.1381 31.6985V32.9085Z" fill="white"/>
<path d="M12.7158 31.6985H11.2637V32.9085H12.7158V31.6985ZM11.2637 31.6985C10.9297 31.6985 10.6587 31.9695 10.6587 32.3035C10.6587 32.6375 10.9297 32.9085 11.2637 32.9085V31.6985ZM12.7158 32.9085C13.0497 32.9085 13.3208 32.6375 13.3208 32.3035C13.3208 31.9695 13.0497 31.6985 12.7158 31.6985V32.9085Z" fill="white"/>
<path d="M30.1381 28.0679H28.6861V29.2779H30.1381V28.0679ZM28.6861 28.0679C28.3521 28.0679 28.0811 28.3389 28.0811 28.6729C28.0811 29.0069 28.3521 29.2779 28.6861 29.2779V28.0679ZM30.1381 29.2779C30.4721 29.2779 30.7431 29.0069 30.7431 28.6729C30.7431 28.3389 30.4721 28.0679 30.1381 28.0679V29.2779Z" fill="white"/>
<path d="M12.7158 28.0679H11.2637V29.2779H12.7158V28.0679ZM11.2637 28.0679C10.9297 28.0679 10.6587 28.3389 10.6587 28.6729C10.6587 29.0069 10.9297 29.2779 11.2637 29.2779V28.0679ZM12.7158 29.2779C13.0497 29.2779 13.3208 29.0069 13.3208 28.6729C13.3208 28.3389 13.0497 28.0679 12.7158 28.0679V29.2779Z" fill="white"/>
<path d="M30.1381 35.3274H28.6861V36.5374H30.1381V35.3274ZM28.6861 35.3274C28.3521 35.3274 28.0811 35.5984 28.0811 35.9324C28.0811 36.2664 28.3521 36.5374 28.6861 36.5374V35.3274ZM30.1381 36.5374C30.4721 36.5374 30.7431 36.2664 30.7431 35.9324C30.7431 35.5984 30.4721 35.3274 30.1381 35.3274V36.5374Z" fill="white"/>
<path d="M12.7158 35.3274H11.2637V36.5374H12.7158V35.3274ZM11.2637 35.3274C10.9297 35.3274 10.6587 35.5984 10.6587 35.9324C10.6587 36.2664 10.9297 36.5374 11.2637 36.5374V35.3274ZM12.7158 36.5374C13.0497 36.5374 13.3208 36.2664 13.3208 35.9324C13.3208 35.5984 13.0497 35.3274 12.7158 35.3274V36.5374Z" fill="white"/>
<path d="M15.1176 24.439C13.8592 24.439 12.8379 25.4602 12.8379 26.7187H14.0479C14.0479 26.1282 14.5271 25.649 15.1176 25.649V24.439ZM26.2886 25.649C26.8791 25.649 27.3583 26.1282 27.3583 26.7187H28.5683C28.5683 25.4602 27.5471 24.439 26.2886 24.439V25.649ZM27.3583 37.8897C27.3583 38.4802 26.8791 38.9594 26.2886 38.9594V40.1694C27.5471 40.1694 28.5683 39.1482 28.5683 37.8897H27.3583ZM15.1176 38.9594C14.5271 38.9594 14.0479 38.4802 14.0479 37.8897H12.8379C12.8379 39.1482 13.8592 40.1694 15.1176 40.1694V38.9594ZM14.0479 37.8897V26.7187H12.8379V37.8897H14.0479ZM26.2886 38.9594H15.1176V40.1694H26.2886V38.9594ZM27.3583 26.7187V37.8897H28.5683V26.7187H27.3583ZM15.1176 25.649H26.2886V24.439H15.1176V25.649Z" fill="white"/>
<path d="M20.8675 30.76C20.5819 30.76 20.3544 30.8471 20.185 31.0213C20.0156 31.1859 19.914 31.4328 19.8801 31.7571H21.7919C21.7435 31.0891 21.4338 30.76 20.8675 30.76ZM22.9487 33.3253C23.1375 33.3253 23.2875 33.393 23.3989 33.5285C23.5199 33.6641 23.5828 33.8432 23.5828 34.061C23.5828 34.361 23.4231 34.5934 23.1085 34.7531C22.8326 34.8838 22.5034 34.9903 22.1211 35.0822C21.7484 35.1645 21.4047 35.2081 21.0853 35.2081C20.4173 35.2081 19.8414 35.0919 19.3428 34.8547C18.8443 34.6176 18.4668 34.2836 18.2006 33.8432C17.9344 33.4027 17.7988 32.8896 17.7988 32.2991C17.7988 31.7086 17.9247 31.2392 18.1764 30.8035C18.4377 30.3582 18.7911 30.0146 19.246 29.7726C19.7107 29.5209 20.2286 29.3999 20.8046 29.3999C21.3805 29.3999 21.8549 29.5112 22.276 29.7387C22.697 29.9662 23.0213 30.2856 23.2488 30.7019C23.486 31.1182 23.6022 31.607 23.6022 32.1636C23.6022 32.3379 23.5586 32.4734 23.4666 32.5702C23.3843 32.6622 23.2633 32.7057 23.1036 32.7057H19.8898C19.9478 33.0687 20.0737 33.3301 20.2673 33.4898C20.4609 33.6495 20.7513 33.727 21.1337 33.727C21.337 33.727 21.5257 33.7076 21.6951 33.6689C21.8645 33.6253 22.0582 33.5624 22.2663 33.485C22.3873 33.4414 22.5034 33.4027 22.6196 33.3737C22.7406 33.3349 22.8519 33.3156 22.9487 33.3156V33.3253Z" fill="white"/>
<defs>
<filter id="filter0_b_64674_13919" x="-8.74688" y="-6.74884" width="59.0719" height="67.4977" filterUnits="userSpaceOnUse" color-interpolation-filters="sRGB">
<feFlood flood-opacity="0" result="BackgroundImageFix"/>
<feGaussianBlur in="BackgroundImageFix" stdDeviation="7.37124"/>
<feComposite in2="SourceAlpha" operator="in" result="effect1_backgroundBlur_64674_13919"/>
<feBlend mode="normal" in="SourceGraphic" in2="effect1_backgroundBlur_64674_13919" result="shape"/>
</filter>
<linearGradient id="paint0_linear_64674_13919" x1="7.38755" y1="42.6213" x2="41.2874" y2="35.5079" gradientUnits="userSpaceOnUse">
<stop stop-color="white"/>
<stop offset="1" stop-color="white" stop-opacity="0"/>
</linearGradient>
</defs>
</svg>
